<mxfile host="app.diagrams.net" modified="2024-03-06T11:39:17.148Z" agent="Mozilla/5.0 (Windows NT 10.0; Win64; x64) AppleWebKit/537.36 (KHTML, like Gecko) Chrome/121.0.0.0 Safari/537.36" etag="I8JzwTiMJogECrblAWIn" version="24.0.2" type="github">
  <diagram name="Page-1" id="74e2e168-ea6b-b213-b513-2b3c1d86103e">
    <mxGraphModel dx="1562" dy="845" grid="1" gridSize="10" guides="1" tooltips="1" connect="1" arrows="1" fold="1" page="1" pageScale="1" pageWidth="1100" pageHeight="850" background="none" math="0" shadow="0">
      <root>
        <mxCell id="0" />
        <mxCell id="1" parent="0" />
        <mxCell id="77e6c97f196da883-1" value="HTTP Performance" style="swimlane;html=1;childLayout=stackLayout;startSize=20;rounded=0;shadow=0;labelBackgroundColor=none;strokeWidth=1;fontFamily=Verdana;fontSize=8;align=center;" parent="1" vertex="1">
          <mxGeometry x="70" y="40" width="960" height="390" as="geometry">
            <mxRectangle x="70" y="40" width="120" height="20" as="alternateBounds" />
          </mxGeometry>
        </mxCell>
        <mxCell id="77e6c97f196da883-2" value="Browser" style="swimlane;html=1;startSize=20;" parent="77e6c97f196da883-1" vertex="1">
          <mxGeometry y="20" width="160" height="370" as="geometry">
            <mxRectangle y="20" width="40" height="730" as="alternateBounds" />
          </mxGeometry>
        </mxCell>
        <mxCell id="77e6c97f196da883-8" value="Browser" style="rounded=1;whiteSpace=wrap;html=1;shadow=0;labelBackgroundColor=none;strokeWidth=1;fontFamily=Verdana;fontSize=8;align=center;" parent="77e6c97f196da883-2" vertex="1">
          <mxGeometry x="20" y="65" width="100" height="60" as="geometry" />
        </mxCell>
        <mxCell id="iOfbbKAdhU-g8TWxKi7c-74" style="edgeStyle=orthogonalEdgeStyle;rounded=0;orthogonalLoop=1;jettySize=auto;html=1;exitX=0.5;exitY=1;exitDx=0;exitDy=0;entryX=0.5;entryY=0;entryDx=0;entryDy=0;" edge="1" parent="77e6c97f196da883-2" source="77e6c97f196da883-9" target="iOfbbKAdhU-g8TWxKi7c-72">
          <mxGeometry relative="1" as="geometry" />
        </mxCell>
        <mxCell id="77e6c97f196da883-9" value="HTML Page" style="rounded=1;whiteSpace=wrap;html=1;shadow=0;labelBackgroundColor=none;strokeWidth=1;fontFamily=Verdana;fontSize=8;align=center;" parent="77e6c97f196da883-2" vertex="1">
          <mxGeometry x="20" y="176" width="100" height="60" as="geometry" />
        </mxCell>
        <mxCell id="iOfbbKAdhU-g8TWxKi7c-72" value="Render&lt;br&gt;And Render&lt;br&gt;Continously" style="rounded=1;whiteSpace=wrap;html=1;shadow=0;labelBackgroundColor=none;strokeWidth=1;fontFamily=Verdana;fontSize=8;align=center;" vertex="1" parent="77e6c97f196da883-2">
          <mxGeometry x="20" y="280" width="100" height="60" as="geometry" />
        </mxCell>
        <mxCell id="77e6c97f196da883-27" style="edgeStyle=orthogonalEdgeStyle;rounded=1;html=1;labelBackgroundColor=none;startArrow=none;startFill=0;startSize=5;endArrow=classicThin;endFill=1;endSize=5;jettySize=auto;orthogonalLoop=1;strokeWidth=1;fontFamily=Verdana;fontSize=8" parent="77e6c97f196da883-1" source="77e6c97f196da883-11" target="77e6c97f196da883-9" edge="1">
          <mxGeometry relative="1" as="geometry">
            <Array as="points">
              <mxPoint x="240" y="160" />
              <mxPoint x="70" y="160" />
            </Array>
          </mxGeometry>
        </mxCell>
        <mxCell id="77e6c97f196da883-3" value="Browser" style="swimlane;html=1;startSize=20;" parent="77e6c97f196da883-1" vertex="1">
          <mxGeometry x="160" y="20" width="160" height="370" as="geometry" />
        </mxCell>
        <mxCell id="77e6c97f196da883-11" value="Browser Cache" style="rounded=1;whiteSpace=wrap;html=1;shadow=0;labelBackgroundColor=none;strokeWidth=1;fontFamily=Verdana;fontSize=8;align=center;" parent="77e6c97f196da883-3" vertex="1">
          <mxGeometry x="30" y="65" width="110" height="60" as="geometry" />
        </mxCell>
        <mxCell id="iOfbbKAdhU-g8TWxKi7c-27" value="Browser Cache" style="rounded=1;whiteSpace=wrap;html=1;shadow=0;labelBackgroundColor=none;strokeWidth=1;fontFamily=Verdana;fontSize=8;align=center;" vertex="1" parent="77e6c97f196da883-3">
          <mxGeometry x="25" y="176" width="110" height="60" as="geometry" />
        </mxCell>
        <mxCell id="77e6c97f196da883-4" value="Lane 3" style="swimlane;html=1;startSize=20;" parent="77e6c97f196da883-1" vertex="1">
          <mxGeometry x="320" y="20" width="160" height="370" as="geometry" />
        </mxCell>
        <mxCell id="iOfbbKAdhU-g8TWxKi7c-1" value="CDN (Proxy)" style="rounded=1;whiteSpace=wrap;html=1;shadow=0;labelBackgroundColor=none;strokeWidth=1;fontFamily=Verdana;fontSize=8;align=center;" vertex="1" parent="77e6c97f196da883-4">
          <mxGeometry x="40" y="65" width="100" height="60" as="geometry" />
        </mxCell>
        <mxCell id="iOfbbKAdhU-g8TWxKi7c-28" value="CDN (Proxy)" style="rounded=1;whiteSpace=wrap;html=1;shadow=0;labelBackgroundColor=none;strokeWidth=1;fontFamily=Verdana;fontSize=8;align=center;" vertex="1" parent="77e6c97f196da883-4">
          <mxGeometry x="40" y="176" width="100" height="60" as="geometry" />
        </mxCell>
        <mxCell id="77e6c97f196da883-5" value="Server" style="swimlane;html=1;startSize=20;" parent="77e6c97f196da883-1" vertex="1">
          <mxGeometry x="480" y="20" width="160" height="370" as="geometry" />
        </mxCell>
        <mxCell id="iOfbbKAdhU-g8TWxKi7c-7" value="Server Cache" style="rounded=1;whiteSpace=wrap;html=1;shadow=0;labelBackgroundColor=none;strokeWidth=1;fontFamily=Verdana;fontSize=8;align=center;" vertex="1" parent="77e6c97f196da883-5">
          <mxGeometry x="30" y="65" width="100" height="60" as="geometry" />
        </mxCell>
        <mxCell id="iOfbbKAdhU-g8TWxKi7c-29" value="Server Cache" style="rounded=1;whiteSpace=wrap;html=1;shadow=0;labelBackgroundColor=none;strokeWidth=1;fontFamily=Verdana;fontSize=8;align=center;" vertex="1" parent="77e6c97f196da883-5">
          <mxGeometry x="30" y="176" width="100" height="60" as="geometry" />
        </mxCell>
        <mxCell id="77e6c97f196da883-6" value="Server" style="swimlane;html=1;startSize=20;" parent="77e6c97f196da883-1" vertex="1">
          <mxGeometry x="640" y="20" width="160" height="370" as="geometry" />
        </mxCell>
        <mxCell id="iOfbbKAdhU-g8TWxKi7c-6" value="Server Code" style="rounded=1;whiteSpace=wrap;html=1;shadow=0;labelBackgroundColor=none;strokeWidth=1;fontFamily=Verdana;fontSize=8;align=center;" vertex="1" parent="77e6c97f196da883-6">
          <mxGeometry x="30" y="65" width="100" height="60" as="geometry" />
        </mxCell>
        <mxCell id="iOfbbKAdhU-g8TWxKi7c-31" value="Server Code" style="rounded=1;whiteSpace=wrap;html=1;shadow=0;labelBackgroundColor=none;strokeWidth=1;fontFamily=Verdana;fontSize=8;align=center;" vertex="1" parent="77e6c97f196da883-6">
          <mxGeometry x="30" y="176" width="100" height="60" as="geometry" />
        </mxCell>
        <mxCell id="77e6c97f196da883-7" value="Third Services" style="swimlane;html=1;startSize=20;" parent="77e6c97f196da883-1" vertex="1">
          <mxGeometry x="800" y="20" width="160" height="370" as="geometry" />
        </mxCell>
        <mxCell id="iOfbbKAdhU-g8TWxKi7c-8" value="Database" style="rounded=1;whiteSpace=wrap;html=1;shadow=0;labelBackgroundColor=none;strokeWidth=1;fontFamily=Verdana;fontSize=8;align=center;" vertex="1" parent="77e6c97f196da883-7">
          <mxGeometry x="30" y="65" width="100" height="60" as="geometry" />
        </mxCell>
        <mxCell id="iOfbbKAdhU-g8TWxKi7c-3" style="edgeStyle=orthogonalEdgeStyle;rounded=0;orthogonalLoop=1;jettySize=auto;html=1;exitX=1;exitY=0.5;exitDx=0;exitDy=0;entryX=0;entryY=0.5;entryDx=0;entryDy=0;" edge="1" parent="77e6c97f196da883-1" source="77e6c97f196da883-11" target="iOfbbKAdhU-g8TWxKi7c-1">
          <mxGeometry relative="1" as="geometry" />
        </mxCell>
        <mxCell id="iOfbbKAdhU-g8TWxKi7c-5" style="rounded=1;orthogonalLoop=1;jettySize=auto;html=1;exitX=0.5;exitY=1;exitDx=0;exitDy=0;entryX=0.5;entryY=0;entryDx=0;entryDy=0;edgeStyle=orthogonalEdgeStyle;" edge="1" parent="77e6c97f196da883-1" source="iOfbbKAdhU-g8TWxKi7c-1" target="77e6c97f196da883-9">
          <mxGeometry relative="1" as="geometry">
            <Array as="points">
              <mxPoint x="410" y="160" />
              <mxPoint x="70" y="160" />
            </Array>
          </mxGeometry>
        </mxCell>
        <mxCell id="iOfbbKAdhU-g8TWxKi7c-10" style="edgeStyle=orthogonalEdgeStyle;rounded=0;orthogonalLoop=1;jettySize=auto;html=1;exitX=1;exitY=0.5;exitDx=0;exitDy=0;entryX=0;entryY=0.5;entryDx=0;entryDy=0;" edge="1" parent="77e6c97f196da883-1" source="iOfbbKAdhU-g8TWxKi7c-1" target="iOfbbKAdhU-g8TWxKi7c-7">
          <mxGeometry relative="1" as="geometry" />
        </mxCell>
        <mxCell id="iOfbbKAdhU-g8TWxKi7c-11" style="edgeStyle=orthogonalEdgeStyle;rounded=0;orthogonalLoop=1;jettySize=auto;html=1;exitX=1;exitY=0.5;exitDx=0;exitDy=0;entryX=0;entryY=0.5;entryDx=0;entryDy=0;" edge="1" parent="77e6c97f196da883-1" source="iOfbbKAdhU-g8TWxKi7c-7" target="iOfbbKAdhU-g8TWxKi7c-6">
          <mxGeometry relative="1" as="geometry" />
        </mxCell>
        <mxCell id="iOfbbKAdhU-g8TWxKi7c-12" style="edgeStyle=orthogonalEdgeStyle;rounded=0;orthogonalLoop=1;jettySize=auto;html=1;exitX=1;exitY=0.5;exitDx=0;exitDy=0;entryX=0;entryY=0.5;entryDx=0;entryDy=0;" edge="1" parent="77e6c97f196da883-1" source="iOfbbKAdhU-g8TWxKi7c-6" target="iOfbbKAdhU-g8TWxKi7c-8">
          <mxGeometry relative="1" as="geometry" />
        </mxCell>
        <mxCell id="iOfbbKAdhU-g8TWxKi7c-13" style="edgeStyle=orthogonalEdgeStyle;rounded=1;orthogonalLoop=1;jettySize=auto;html=1;exitX=0.5;exitY=1;exitDx=0;exitDy=0;curved=0;" edge="1" parent="77e6c97f196da883-1" source="iOfbbKAdhU-g8TWxKi7c-6" target="77e6c97f196da883-9">
          <mxGeometry relative="1" as="geometry">
            <Array as="points">
              <mxPoint x="720" y="160" />
              <mxPoint x="70" y="160" />
            </Array>
          </mxGeometry>
        </mxCell>
        <mxCell id="iOfbbKAdhU-g8TWxKi7c-14" style="edgeStyle=orthogonalEdgeStyle;rounded=1;orthogonalLoop=1;jettySize=auto;html=1;exitX=0.5;exitY=1;exitDx=0;exitDy=0;curved=0;" edge="1" parent="77e6c97f196da883-1" source="iOfbbKAdhU-g8TWxKi7c-7" target="77e6c97f196da883-9">
          <mxGeometry relative="1" as="geometry">
            <Array as="points">
              <mxPoint x="560" y="160" />
              <mxPoint x="70" y="160" />
            </Array>
          </mxGeometry>
        </mxCell>
        <mxCell id="iOfbbKAdhU-g8TWxKi7c-34" value="Ask&lt;br&gt;Image&lt;br&gt;And&lt;br&gt;Script" style="edgeStyle=orthogonalEdgeStyle;rounded=0;orthogonalLoop=1;jettySize=auto;html=1;exitX=1;exitY=0.5;exitDx=0;exitDy=0;entryX=0;entryY=0.5;entryDx=0;entryDy=0;" edge="1" parent="77e6c97f196da883-1" source="77e6c97f196da883-9" target="iOfbbKAdhU-g8TWxKi7c-27">
          <mxGeometry relative="1" as="geometry" />
        </mxCell>
        <mxCell id="iOfbbKAdhU-g8TWxKi7c-35" style="edgeStyle=orthogonalEdgeStyle;rounded=0;orthogonalLoop=1;jettySize=auto;html=1;exitX=1;exitY=0.5;exitDx=0;exitDy=0;entryX=0;entryY=0.5;entryDx=0;entryDy=0;" edge="1" parent="77e6c97f196da883-1" source="iOfbbKAdhU-g8TWxKi7c-27" target="iOfbbKAdhU-g8TWxKi7c-28">
          <mxGeometry relative="1" as="geometry" />
        </mxCell>
        <mxCell id="iOfbbKAdhU-g8TWxKi7c-36" style="edgeStyle=orthogonalEdgeStyle;rounded=0;orthogonalLoop=1;jettySize=auto;html=1;exitX=1;exitY=0.5;exitDx=0;exitDy=0;entryX=0;entryY=0.5;entryDx=0;entryDy=0;" edge="1" parent="77e6c97f196da883-1" source="iOfbbKAdhU-g8TWxKi7c-28" target="iOfbbKAdhU-g8TWxKi7c-29">
          <mxGeometry relative="1" as="geometry" />
        </mxCell>
        <mxCell id="iOfbbKAdhU-g8TWxKi7c-37" style="edgeStyle=orthogonalEdgeStyle;rounded=0;orthogonalLoop=1;jettySize=auto;html=1;exitX=1;exitY=0.5;exitDx=0;exitDy=0;entryX=0;entryY=0.5;entryDx=0;entryDy=0;" edge="1" parent="77e6c97f196da883-1" source="iOfbbKAdhU-g8TWxKi7c-29" target="iOfbbKAdhU-g8TWxKi7c-31">
          <mxGeometry relative="1" as="geometry" />
        </mxCell>
        <mxCell id="iOfbbKAdhU-g8TWxKi7c-39" value="Ask &lt;br&gt;HTML &lt;br&gt;Page" style="edgeStyle=orthogonalEdgeStyle;rounded=0;orthogonalLoop=1;jettySize=auto;html=1;exitX=1;exitY=0.5;exitDx=0;exitDy=0;entryX=0;entryY=0.5;entryDx=0;entryDy=0;" edge="1" parent="77e6c97f196da883-1" source="77e6c97f196da883-8" target="77e6c97f196da883-11">
          <mxGeometry relative="1" as="geometry" />
        </mxCell>
      </root>
    </mxGraphModel>
  </diagram>
</mxfile>
